[img]http://www.imagefreeks.com/out.php/i79_banner.png[/img]

[img]http://www.imagefreeks.com/out.php/i166_q5NYgUf3.jpeg[/img]

[img]http://www.imagefreeks.com/out.php/i85_info.png[/img]
[code]Video
ID                               : 0
Format                           : MPEG-4 Visual
Format profile                   : Advanced Simple@L5
Format settings, BVOP            : Yes
Format settings, QPel            : No
Format settings, GMC             : No warppoints
Format settings, Matrix          : Default (H.263)
Codec ID                         : XVID
Codec ID/Hint                    : XviD
Duration                         : 2h 0mn
Bit rate                         : 670 Kbps
Width                            : 592 pixels
Height                           : 320 pixels
Display aspect ratio             : 1.850
Frame rate                       : 23.976 fps
Resolution                       : 8 bits
Colorimetry                      : 4:2:0
Scan type                        : Progressive
Bits/(Pixel*Frame)               : 0.147
Stream size                      : 579 MiB (83%)
Writing library                  : XviD 1.2.1 (UTC 2008-12-04)

Audio
ID                               : 1
Format                           : MPEG Audio
Format version                   : Version 1
Format profile                   : Layer 3
Mode                             : Joint stereo
Codec ID                         : 55
Codec ID/Hint                    : MP3
Duration                         : 2h 0mn
Bit rate mode                    : Constant
Bit rate                         : 128 Kbps
Channel(s)                       : 2 channels
Sampling rate                    : 48.0 KHz
Video delay                      : 24ms
Stream size                      : 111 MiB (16%)
Alignment                        : Aligned on interleaves
Interleave, duration             : 42 ms (1.00 video frame)
Interleave, preload duration     : 504 ms[/code]

[img]http://www.imagefreeks.com/out.php/i86_screens.png[/img]
[img]http://www.imagefreeks.com/out.php/i170_BfCIO4SC.jpeg[/img]
[img]http://www.imagefreeks.com/out.php/i169_F0XhVugK.jpeg[/img]
[img]http://www.imagefreeks.com/out.php/i168_3O3S3AMV.jpeg[/img]
[img]http://www.imagefreeks.com/out.php/i167_cEiyOzQg.jpeg[/img]